<?xml version="1.0" encoding="utf-8"?>
<!-- Generator: Adobe Illustrator 24.1.1, SVG Export Plug-In . SVG Version: 6.00 Build 0)  -->
<svg version="1.1" id="Layer_1" xmlns="http://www.w3.org/2000/svg" xmlns:xlink="http://www.w3.org/1999/xlink" x="0px" y="0px"
	 viewBox="0 0 1920 635" style="enable-background:new 0 0 1920 635;" xml:space="preserve">
<style type="text/css">
	.st0{fill:#A67C52;}
	.st1{fill:#2D2C6E;}
</style>
<rect y="44" class="st0" width="1920" height="591"/>
<path class="st1" d="M1242.4,8.3c0.4,0.2,0.8,0.3,1.2,0.3c0-0.3-0.7-0.6,0-0.6c0,0,0,0,0,0C1243.1,8,1242.4,8,1242.4,8.3z"/>
<path class="st1" d="M1755.2,8.2c-0.1,0-0.1,0-0.1,0c0.1,0.1,0.1,0.2,0.2,0.2C1755.2,8.3,1755.2,8.3,1755.2,8.2z"/>
<path class="st0" d="M1907.5,12.1c0.1-0.5,2-0.1,1.3,0.4c1.3-0.1,1.6-0.8,2.7-1.2c0.8,0.9,3.3-0.3,3.6-0.3c-1.2-1.5-9,0.5-11.4-0.5
	c3.2-1.6-4-1.9-9.1-1.5c1.5,0.7-1.2,0.3-1.3,0.7c-0.7-0.1-0.1-0.4,0.4-0.4c-1.5-0.4-3.5,0.2-5.2,0.1c-0.3,0.1,0.3,0.3,0.3,0.6
	c-0.7-0.1-1.7,0-1.9-0.3c0.7-0.1,0.3-0.5,0-0.7c0,0,0.1,0,0.1,0c0,0-0.1,0-0.1,0c0-0.3,0.8-0.3,1.3-0.3c-0.3-0.8-1.9-0.9-4.2-0.8
	c-0.1,0.4,0.4,0.4,0.4,0.7c-3.3,0-6.9,0.3-9.5,0.7c0,0.4,0.7,0.5,0.4,1.2c1.1,0.3,2.5,0.4,2.7,1.2c-0.8,0.5-2.9,0.4-4.9,0.4
	c-1.7-0.4-0.7-0.8-1.9-1.1c-1.1,0-2.3,0-2.3,0.4c-0.7-0.5-2-0.7-2.7-1.1c-0.5,1.1-2.5,1.6-4.5,2c-0.3,0.7,0.8,0.7,0,1.1
	c-0.4-0.3-1.6-0.7-1.3,0.3c-1.7-0.5-5.2,0.7-7.2-0.7c-1.2,0.4-2.7,0.5-3.2,1.2c-5.1,0-12.3,1.1-19.4,0.9c-0.5-0.1-0.9-0.3-1.3-0.5
	c-0.8,0.3-2.1,0.3-3.3,0.3c-0.1,0-0.4,0-0.5,0c0,0.1,0,0.1,0,0.1c-0.4,0.1-0.8,0.1-1.1,0.2c0,0,0,0,0,0.1c0,0-0.1,0-0.1,0
	c-0.2,0.1-0.3,0.1-0.4,0.2c-0.1,0-0.1,0-0.2,0c0,0,0,0.1,0,0.2c-0.5,0-0.9-0.1-1.3-0.3c0-0.1,0-0.3,0-0.4c0.8,0,1.5-0.1,1.9-0.3
	c0,0,0,0.1,0,0.1c1.4-1,3.6-1.7,3.8-2.8c2.5,0.1,3.1-0.5,6.8-0.4c-0.1-0.3-0.9-0.1-0.9-0.4c1.2-0.1,4,0.1,4.6-0.8
	c0.5,0.1,0.3,0.4,0.4,0.7c2.1-0.5,2.8-0.5,5.5-0.8c-2.8,0.7,1.2,0.5,2.3,0.7c0.4-0.7-1.5-0.4-1.9-0.7c2.9,0.1,5.6-0.7,9.5-0.4
	c0-0.4,1.2-0.3,0.9-0.8c1.1,0,2.1,0,3.2,0c0.3,1.6,7.2,0,7.2,1.2c2.5-0.9,7.4-0.7,7.2-2.7c-0.4,0-0.3,0.3-0.4,0.4
	c-6.3-0.9-10.7,0.3-15.9,0.8c-0.7-0.1-1.5-0.3-1.3-0.8c-2.8,0.4-7.3-0.1-9.1,1.1c-1.7,0-5.1-0.4-4.2,0.3c-3.3-0.1-2.5-0.1-6.4-0.3
	c1.7-1.1-5.6-0.3-6.8,0.3c0.7-0.8-1.6-0.4-4.2-0.8c0,0.3,0,0.5,0,0.8c-1.2-0.1-0.4-0.3-0.4-0.8c-1.7-0.1-2.8-0.5-4.1-0.7
	c-0.4,0.3-0.9,0.5-1.3,0.7c-1.3,0-1.7-0.4-2.3-0.8c2,0.5,4.3,0.1,4.6-1.6c-1.3-0.1-2.8-0.3-2.7-1.1c-0.8,0-1.5,0-2.3,0
	c-0.4,0.7,0.8,0.7,0.9,1.1c-1.1-0.3-1.5-0.7-1.9-1.1c-4.9,0.1-6.2,0.5-10.4-0.7c-5.5,2-14.7,0.4-19.5,1.6c-0.4-0.4-1.2-0.5-2.7-0.4
	c-0.8,1.1-2.9,1.7,0,2.4c3.6-0.7,8.8-1.5,12.7-1.9c1.2,0.1,0.4,0.3,0.4,0.8c0.8,0,2.3,0.3,1.9-0.4c0.8,0.1,0.4,0.7,1.9,0.4
	c-0.1,0.3-0.4,0.4-0.4,0.7c0.6,0.1,0.9,0.1,1.1,0c-1.8,1-3,1.6-6.5,1.9c-0.1,0.4,0.4,0.4,0.4,0.7c-2.5-0.7-2.1,0.9-4.9,0.7
	c-0.1-0.5,0.7-0.7,1.3-0.8c-1.9-0.7-4.1,0.3-5.9-1.1c-0.8,0.3-2.4,0.7-1.3,1.2c-3.6-0.7-8.8-0.7-10.4-1.1c-1.7,0.7-4.4,0.9-5.5,2
	c-1.3,0.1-0.5-0.7-2.3-0.4c0-0.7,2-0.7-0.4-0.7c0.3-0.1,0.8-0.3,1.3-0.4c-1.7-0.5-2.1,1.1-3.2,1.5c-1.6,0.1-2.5-0.5-3.6,0
	c0.5-0.3,0.5-0.5,0-0.8c1.2-0.3,2,0.5,1.9-0.3c-0.8,0-1.5,0-2.3,0c1.6-0.7,3.3-1.9,6.8-1.6c0.4-0.4,1.3-0.5,0.9-1.2
	c2.4,0,10,0,11.8-1.5c-2.3,0.4-2.4-0.4-4.5,0.3c-0.9,0,0.7-0.5-0.4-0.8c-0.8,0.7-1.6,0-2.7,0c-5.1,0.1-9.6,0.8-14,1.9
	c0.6,0.8-1.3,0.5-1.4,1c0.2,0,0.4,0,0.6,0c0.5,1.3-2.8,0.8-3.5,0.9c0.5,0,1.1,0,0.9,0.4c-2.5,0-3.9,0.4-6.4,0.8
	c-0.8-0.4-1.7-0.8-1.9-1.6c1.3-0.4,3.2-1.2,4.5-0.4c-1.2-0.7,3.5-1.3,5-0.8c-0.7,0.1-0.2,0.6,0.6,0.7c-0.4-0.5-1.1-1.6-0.2-1.8
	c-2.1,0.3-5.1-0.4-8.2,0.3c-0.7-1.2-5-0.4-7.2-0.4c0-0.3,0.5-0.3,0.9-0.3c-6.4-0.7-19.5,1.2-29-0.4c-0.5-0.9,1.1-0.9,1.9-1.2
	c-1.7-1.7-5.2-0.9-8.2-1.6c-4.5,0.9-9.4-1.1-15.4-0.8c-0.1-0.5,1.7-0.1,1.3-0.8c-1.1-0.4-2.3,0.3-4.1,0c-0.9,1.2-1.3,2-0.9,3.1
	c-4.4,1.3-7.6,3.2-4.5,5.5c-0.3,2.5-10.8,2-14,2c0.3-0.1,0.4-0.4,0.9-0.4c-0.9-0.7-4-0.3-3.6-1.5c-2.4-0.3-2,0.7-3.6,0.7
	c0.1,0.4,0.9,0.8,0.7,1.1c-2.4-0.5-8.4,0.8-10.6-0.1c3.2-1.6-4-1.9-9.1-1.5c1.5,0.7-1.2,0.3-1.3,0.7c-0.7-0.1-0.1-0.4,0.4-0.4
	c-1.6-0.4-3.6,0.2-5.4,0.1c0.1,0.1,0.3,0.3,0.3,0.5c-0.7-0.1-1.7,0-1.9-0.3c0.5-0.1,0.4-0.4,0.2-0.5c0,0-0.1,0-0.1,0c0,0,0,0,0,0
	c0,0-0.1-0.1-0.1-0.1c0.1,0,0.1,0,0.2,0c0.2-0.2,0.8-0.2,1.3-0.2c-0.3-0.8-1.9-0.9-4.1-0.8c-0.1,0.4,0.4,0.4,0.4,0.7
	c-3.4,0-7,0.3-9.5,0.7c0,0.4,0.7,0.5,0.4,1.2c1.1,0.3,2.5,0.4,2.7,1.2c-0.8,0.5-2.9,0.4-4.9,0.4c-1.7-0.4-0.7-0.8-1.9-1.1
	c-1.1,0-2.3,0-2.3,0.4c-0.7-0.5-2-0.7-2.7-1.1c-0.5,1.1-2.5,1.6-4.5,2c-0.3,0.7,0.8,0.7,0,1.1c-0.4-0.3-1.6-0.7-1.3,0.3
	c-1.7-0.5-5.2,0.7-7.2-0.7c-1.2,0.4-2.7,0.5-3.2,1.2c-6.3,0-15.9,1.7-24.5,0.7c0,0.3,0,0.5,0,0.8c-0.4-0.3-1.1-0.3-1.9-0.3
	c0.1-0.1,0.1-0.1,0.2-0.2c-0.1,0-0.2,0.1-0.2,0.3c-0.5,0-0.9-0.1-1.3-0.3c0-0.1,0-0.3,0-0.4c0.8,0,1.5-0.1,1.9-0.3
	c-0.1,0.1,0,0.2,0,0.2c1.3-1.1,3.8-1.8,4-2.9c2.5,0.1,3.1-0.5,6.8-0.4c-0.1-0.3-0.9-0.1-0.9-0.4c1.2-0.1,4,0.1,4.6-0.8
	c0.5,0.1,0.3,0.4,0.4,0.7c2.1-0.5,2.8-0.5,5.5-0.8c-2.8,0.7,1.2,0.5,2.3,0.7c0.4-0.7-1.5-0.4-1.9-0.7c2.9,0.1,5.6-0.7,9.5-0.4
	c0-0.4,1.2-0.3,0.9-0.8c1.1,0,2.1,0,3.2,0c0.3,1.6,7.2,0,7.2,1.2c2.5-0.9,7.4-0.7,7.2-2.7c-0.4,0-0.3,0.3-0.4,0.4
	c-6.3-0.9-10.7,0.3-15.9,0.8c-0.7-0.1-1.5-0.3-1.3-0.8c-2.8,0.4-7.3-0.1-9.1,1.1c-1.7,0-5.1-0.4-4.2,0.3c-3.3-0.1-2.5-0.1-6.4-0.3
	c1.7-1.1-5.6-0.3-6.8,0.3c0.7-0.8-1.6-0.4-4.2-0.8c0,0.3,0,0.5,0,0.8c-1.2-0.1-0.4-0.3-0.4-0.8c-1.7-0.1-2.8-0.5-4.2-0.7
	c-0.4,0.3-0.9,0.5-1.3,0.7c-1.3,0-1.7-0.4-2.3-0.8c2,0.5,4.3,0.1,4.6-1.6c-1.3-0.1-2.8-0.3-2.7-1.1c-0.8,0-1.5,0-2.3,0
	c-0.4,0.7,0.8,0.7,0.9,1.1c-1.1-0.3-1.5-0.7-1.9-1.1c-5,0.1-6.2,0.5-10.4-0.7c-5.5,2-14.7,0.4-19.5,1.6c-0.4-0.4-1.2-0.5-2.7-0.4
	c-0.8,1.1-2.9,1.7,0,2.4c3.6-0.7,8.8-1.5,12.7-1.9c1.2,0.1,0.4,0.3,0.4,0.8c0.8,0,2.3,0.3,1.9-0.4c0.8,0.1,0.4,0.7,1.9,0.4
	c-0.1,0.3-0.4,0.4-0.4,0.7c0.6,0.1,0.9,0.1,1.1,0c-1.8,1-3,1.6-6.5,1.9c-0.1,0.4,0.4,0.4,0.4,0.7c-2.5-0.7-2.1,0.9-5,0.7
	c-0.1-0.5,0.7-0.7,1.3-0.8c-1.9-0.7-4.2,0.3-5.9-1.1c-0.8,0.3-2.4,0.7-1.3,1.2c-3.6-0.7-8.8-0.7-10.4-1.1c-1.7,0.7-4.4,0.9-5.5,2
	c-1.3,0.1-0.5-0.7-2.3-0.4c0-0.7,2-0.7-0.4-0.7c0.3-0.1,0.8-0.3,1.3-0.4c-1.7-0.5-2.1,1.1-3.2,1.5c-1.6,0.1-2.5-0.5-3.6,0
	c0.5-0.3,0.5-0.5,0-0.8c1.2-0.3,2,0.5,1.9-0.3c-0.8,0-1.5,0-2.3,0c1.6-0.7,3.3-1.9,6.8-1.6c0.4-0.4,1.3-0.5,0.9-1.2
	c2.4,0,10,0,11.8-1.5c-2.3,0.4-2.4-0.4-4.5,0.3c-0.9,0,0.7-0.5-0.4-0.8c-0.8,0.7-1.6,0-2.7,0c-5.1,0.1-9.6,0.8-14,1.9
	c0.6,0.8-1.2,0.5-1.4,1c0.1,0,0.2,0,0.3,0c0.5,1.3-2.8,0.7-3.5,0.9c0.5,0,1.1,0,0.9,0.4c-2.5,0-3.9,0.4-6.4,0.8
	c-0.8-0.4-1.7-0.8-1.9-1.6c1.3-0.4,3.2-1.2,4.5-0.4c-1.2-0.7,3.5-1.3,5-0.8c-0.8,0.1-0.1,0.7,0.9,0.7c-0.4-0.5-1.1-1.6-0.2-1.8
	c-2.1,0.3-5.1-0.4-8.2,0.3c-0.7-1.2-4.9-0.4-7.2-0.4c0-0.3,0.5-0.3,0.9-0.3c-6.4-0.7-19.5,1.2-29-0.4c-0.5-0.9,1.1-0.9,1.9-1.2
	c-1.7-1.7-5.2-0.9-8.2-1.6c-4.5,0.9-9.4-1.1-15.4-0.8c-0.1-0.5,1.7-0.1,1.3-0.8c-1.1-0.4-2.3,0.3-4.1,0c-0.9,1.2-1.3,2-0.9,3.1
	c-2.4,0.8-4.5,1.6-5.3,2.7c-0.1,0-0.3,0-0.4,0c-0.4,0.3-0.7,0.5-1.3,0.8c-4.4-0.7-15.6-0.5-24.1-0.7c-6-0.1-11,0.9-14,2
	c0.3,1.1-0.1,1.5,0.9,2c-1.7,0.1-4-0.1-5.5,0.7c-0.5-0.1-0.3-0.4-0.4-0.7c-5.9,1.1-6.8-2.1-12.3-1.6c1.6-1.1-3.4,0.1-3.6-1.1
	c-10.3,1.5-23.8-0.8-34.9,0.8c-0.8,1.6-3.1,2.5-5.9,3.2c-0.9-0.1,0.5-0.4-0.4-0.7c-3.6-0.5-6.7,0.3-9.1-0.8c-3.9,0-12.2,2-14.6,0.3
	c-2,0.1-4,0-6.1-0.1v2.8c0.4,0.1,0.8,0.3,1.2,0.4c1.7,0,3.2-0.7,2.3-1.1c1.3,0,2.3,0.3,2.7,0.8c1.7-0.4,1.6-0.3,1.9,0.3
	c1.1,0,3.1-1.5,3.2,0c0.9-0.4,3.3-0.3,4.2-0.8c1.5,0,0.5,1.3,1.9,0.7c-0.1,1.5-4.3,0.9-4.1,1.9c-1.9,0.3-5.6-0.5-3.6-0.7
	c-1.3-0.8-5.6,1.2-5.9-0.3c-1.7,0.1-4.3,0.9-2.3,1.5c-0.4,0.1-0.8,0.3-1.2,0.3v1.6c-0.1,0-0.3-0.1-0.4-0.1c-2.7,0.5-3.6,1.2-6.4,0.7
	c0-0.3,0.1-0.4,0.3-0.4c-0.3,0.1-0.5,0.1-0.8,0.1V17c-0.5,0-1.1-0.1-2-0.1c1.5-0.5-1.3-0.4,0-0.7c-0.4,0-5.1-0.5-4.9,0.7
	c-0.1-0.1-2-0.1-1.7-0.3c-1.9,0.3-4.6-1.3-6.4-0.1c0.4-0.5-1.9-0.5-2.3-1.2c-3.3,0.1-6.4,0-6.4-1.5c-0.4,0-0.3,0.3-0.4,0.4
	c-0.1,0.3-0.5-0.1-1.3,0c-0.1,1.5-4.3,0.5-6.4,1.2c-0.8,0-0.8-1.2,0-1.2c-0.5-0.9-3.6-0.6-5.3-0.8c-0.2,0.1-0.4,0.2-0.6,0.1
	c-0.1-0.5,1.2-1.3,1.3-1.1c-0.1,0.1-0.2,0.1-0.1,0.2c0.1-0.1,0.3-0.1,0.6-0.1c1.3,0.1-0.4,0.4,0,0.8c1.1-0.5,1.9-1.1,3.6-0.7
	c-0.1-0.8,1.3-0.8,1.3-1.5c0.5,0.3,2.1,0.3,2.7,0c-1.9,1.5,1.5,2.3,0.4,3.1c0.3,0,0.7,0,0.9,0c0.3,0,0.7,0,0.9,0
	c-0.4-0.7-0.3-1.2,0.9-0.7c-0.7-0.4,0.3-2.1-0.9-2.3c0.1-0.5,2-0.1,1.3,0.4c1.3-0.1,1.6-0.8,2.7-1.2c0.8,0.9,3.3-0.3,3.6-0.3
	c-1.2-1.5-9,0.5-11.4-0.5c3.2-1.6-4-1.9-9.1-1.5c1.5,0.7-1.2,0.3-1.3,0.7c-0.7-0.1-0.1-0.4,0.4-0.4c-1.6-0.4-3.8,0.3-5.6,0
	c0,0,0,0.1,0,0.1c-0.7-0.1-1.7,0-1.9-0.3c0.7-0.1,0.3-0.5,0-0.7c0.7,0.1,1.7,0,1.9,0.3c0.1,0,0.1,0,0.2,0c-0.3-0.8-1.9-0.9-4.2-0.8
	c-0.1,0.4,0.4,0.4,0.4,0.7c-3.3,0-6.9,0.3-9.5,0.7c0,0.4,0.7,0.5,0.4,1.2c1.1,0.3,2.5,0.4,2.7,1.2c-0.8,0.5-2.9,0.4-4.9,0.4
	c-1.7-0.4-0.7-0.8-1.9-1.1c-1.1,0-2.3,0-2.3,0.4c-0.7-0.5-2-0.7-2.7-1.1c-0.5,1.1-2.5,1.6-4.6,2c-0.3,0.7,0.8,0.7,0,1.1
	c-0.4-0.3-1.6-0.7-1.3,0.3c-1.7-0.5-5.2,0.7-7.2-0.7c-0.3,0.1-0.7,0.1-0.9,0.3c-2.8-0.4-6.7-0.4-8.6,0c-1.3,0-1.9-0.4-2.3-0.8
	c-3.5,0.4-5.3-0.4-5.5-1.3c1.2-0.1,2.5-0.3,2.8-0.8c0.5,0.1,0.3,0.4,0.4,0.7c2.1-0.5,2.8-0.5,5.5-0.8c-2.8,0.7,1.2,0.5,2.3,0.7
	c0.4-0.7-1.5-0.4-1.9-0.7c2.9,0.1,5.6-0.7,9.5-0.4c0-0.4,1.2-0.3,0.9-0.8c1.1,0,2.1,0,3.2,0c0.3,1.6,7.2,0,7.2,1.2
	c2.5-0.9,7.4-0.7,7.2-2.7c-0.4,0-0.3,0.3-0.4,0.4c-6.3-0.9-10.7,0.3-15.9,0.8c-0.7-0.1-1.5-0.3-1.3-0.8c-2.8,0.4-7.4-0.1-9.1,1.1
	c-1.7,0-5.1-0.4-4.2,0.3c-3.3-0.1-2.5-0.1-6.4-0.3c1.7-1.1-5.6-0.3-6.8,0.3c0.7-0.8-1.6-0.4-4.2-0.8c0,0.3,0,0.5,0,0.8
	c-1.2-0.1-0.4-0.3-0.4-0.8c-1.7-0.1-2.8-0.5-4.1-0.7c-0.4,0.3-0.9,0.5-1.3,0.7c-1.3,0-1.7-0.4-2.3-0.8c2,0.5,4.3,0.1,4.6-1.6
	c-1.3-0.1-2.8-0.3-2.7-1.1c-0.8,0-1.5,0-2.3,0c-0.4,0.7,0.8,0.7,0.9,1.1c-1.1-0.3-1.5-0.7-1.9-1.1c-4.9,0.1-6.2,0.5-10.4-0.7
	c-5.5,2-14.7,0.4-19.5,1.6c-0.4-0.4-1.2-0.5-2.7-0.4c-0.8,1.1-2.9,1.7,0,2.4c3.6-0.7,8.8-1.5,12.7-1.9c1.2,0.1,0.4,0.3,0.4,0.8
	c0.8,0,2.3,0.3,1.9-0.4c0.8,0.1,0.4,0.7,1.9,0.4c-0.1,0.3-0.4,0.4-0.4,0.7c0.6,0.1,0.9,0.1,1.1,0c-1.8,1-3.1,1.6-6.5,1.9
	c-0.1,0.1,0,0.1,0.1,0.3c-1.2,0-2.3,0-3.4,0.1c-1.9-0.6-4.1,0.3-5.8-1.1c-0.8,0.3-2.4,0.7-1.3,1.2c-3.6-0.7-8.8-0.7-10.4-1.1
	c-1.7,0.7-4.4,0.9-5.5,2c-1.3,0.1-0.5-0.7-2.3-0.4c0-0.7,2-0.7-0.4-0.7c0.3-0.1,0.8-0.3,1.3-0.4c-1.7-0.5-2.2,1.1-3.2,1.5
	c-1.6,0.1-2.5-0.5-3.6,0c0.5-0.3,0.5-0.5,0-0.8c1.2-0.3,2,0.5,1.9-0.3c-0.8,0-1.5,0-2.3,0c1.6-0.7,3.3-1.9,6.8-1.6
	c0.4-0.4,1.3-0.5,0.9-1.2c2.4,0,10,0,11.8-1.5c-2.3,0.4-2.4-0.4-4.5,0.3c-0.9,0,0.7-0.5-0.4-0.8c-0.8,0.7-1.6,0-2.7,0
	c-5.1,0.1-9.6,0.8-14,1.9c0.7,0.9-1.7,0.4-1.3,1.2c-0.1-0.1-1.5-1.7-0.4-2c-2.1,0.3-5.1-0.4-8.2,0.3c-0.7-1.2-5-0.4-7.2-0.4
	c0-0.3,0.5-0.3,0.9-0.3c-6.4-0.7-19.5,1.2-29-0.4c-0.5-0.9,1.1-0.9,1.9-1.2c-1.7-1.7-5.2-0.9-8.2-1.6c-4.5,0.9-9.4-1.1-15.4-0.8
	c-0.1-0.5,1.7-0.1,1.3-0.8c-1.1-0.4-2.3,0.3-4.2,0c-0.9,1.2-1.3,2-0.9,3.1c-4.4,1.3-7.6,3.2-4.5,5.5c-0.3,2.5-10.8,2-14.1,2
	c0.3-0.1,0.4-0.4,0.9-0.4c-0.9-0.7-4-0.3-3.6-1.5c-2.4-0.3-2,0.7-3.6,0.7c0.3,0.7,1.6,1.1,0,1.5c2,0.3,4.1,0.3,6.4,0
	c-1.6,0.8,1.9,1.1,3.6,1.5c-0.1,1.2-0.1,1.6,1.3,2c-0.5,0.5-1.3,1.1-2.5,1.3c-0.1-0.3-0.1-0.4,0.1-0.8c-0.3-0.5-1.9-0.1-1.6-1.1
	c-0.7,0.4-1.3,0.1-1.3,0.7c-1.7,0.3-3.1-0.3-4.8-0.3c-3.2,0-6.2,1.6-9,1.9c-2,0.1-3.8-0.4-5.9-0.3c0.5,0-1.5,0.5-2,0.3
	c-0.4-0.1,0.1-0.3,0-0.7c-2.3-0.3-5.1-0.5-7.1,0c-2.4-1.2-3.6,1.5-6.3,0c0.1-0.9-0.3-0.9,0-1.6c-1.9-0.4-3.9,0.7-4.4-0.4
	c-0.7,0.4-2,0.5-1.9-0.7c-1.2,0.1-1.2,0.3-2,0.4c-0.5-0.9-1.5-0.1-2.1-0.8c-1.5,3.6-8.7,0-10.4,3.1c0.8,0,0.8,0.1,2.5,0.7
	c0,1.6-2.1,1.5-3.5,1.9c-0.4,0-0.3-0.5-0.3-0.8c-0.7,0.9-2,0.1-3.5,0.3c-4.3,0.3-10.8,0.8-15.5,1.5c-1.1,0.3-2.1,0.1-2.9,0.3
	c-0.4,0-0.5-0.4-0.7-0.4c-0.8,0-3.2,0.5-4.4,0.4c-0.9,0.9-2.5,2.5-5.5,2.4c-1.5-1.5-2.5-1.6-4.4-1.6c0.9-0.1,0.5-1.3,1.3-0.7
	c0.8,0-0.4-0.9,0.3-0.8c-0.4-0.9-1.3,0-1.3-1.2c-2.1,0-2.8,0.1-4.4-0.8c-0.1,0.3-0.9,0.9-0.3,1.2c-0.7-0.1-0.9,1.2-2.3,1.1
	c0.3,0.7,0,0.5,0.3,1.1c0.4-0.3,0.7-0.7,1.3-0.8c0.4,0.1,0.4,0.7,0.4,1.2c-0.4,0.5-2.1-0.1-2.5,0.4c-0.1-0.7,0.4-0.5,0.3-1.1
	c-3.3,0.1-10.3,2-13.4-0.8c-1.7-0.1-3.1-0.7-4.5-1.2c-2.7,0.5-3.6,1.2-6.4,0.7c0-0.3,0.1-0.4,0.3-0.4c-1.5,0.7-2.5-0.9-5.3-0.7
	c-0.3-0.1-1.1-0.8-0.7-0.8c-1.1-0.7-3.2-1.6-3.7,0.3c-1.3,0.1-1.6,0-2.9,0.4c-0.3-1.1,0.5-1.1,0.7-1.9c0.5,0.4,1.1-0.3,1.3,0.4
	c0.5,0,0.1-0.8,0.3-1.1c-3.2,0.4-6-0.1-9.2-0.1c-0.9,0.3-2.5,0.7-3.7,0.7c-0.1,0-0.4-0.4-0.4-0.4c-1.6,0.3-2.3,1.2-4.4,1.6
	c-2.4,0.4-5.1,0.4-7.4,1.6c-0.1-0.1-0.1-0.1-0.3-0.1v-2c-1.2,0.1-2.5,0.3-3.9,0.4c-0.8,0-0.3-0.7-0.9-0.8c-1.3,0.7-3.1,0.5-4.8,0.4
	c-0.1-0.8-2.8-0.9-3.9-1.9c-0.1,0-0.1,0-0.3,0c-0.4-0.7,1.1-0.4,1.9-0.4c0-0.5,0.8-0.4,0-0.8c1.5-0.1,2.1,0.1,1.9,0.8
	c3.3,0,5.8,0.3,8.7,0.3c0-0.4,0-0.7,0-1.1c-5.3-0.5-11.9-0.3-14-1.5c-0.9-0.1-0.7,0.4-1.3,0.4c-2.4-0.8-4.7-0.8-6.8-1.9
	c-1.6,0.4-4.9,0-5.5,0.8c-1.6,0.1-0.5-0.9-2.3-0.7c-0.3,0.4,0.3,0.5,0.4,0.8c-3.3-0.1-6.4,0.9-12.3,0.7c-2-1.1-8.7-1.2-11.4-0.7
	c-1.3,0-1.9-0.4-2.3-0.8c-4.5,0.4-6.4-0.9-4.9-2.4c-4.4-0.3-7.5,1.3-11.4,0.7c0-0.4,0-0.8,0-1.2c-1.9,0.4-3.1-0.1-5.5,0
	c-0.4,0.3-0.7,0.7-1.3,0.8c-4.4-0.7-15.6-0.5-24.1-0.7c-6-0.1-11,0.9-14,2c0.3,1.1-0.1,1.5,0.9,2c-1.7,0.1-4-0.1-5.5,0.7
	c-0.5-0.1-0.3-0.4-0.4-0.7c-5.9,1.1-6.8-2.1-12.3-1.6c1.6-1.1-3.3,0.1-3.6-1.1c-5.2,0.8-11.2,0.5-17.3,0.4c-1.6-1.5-3.1-3.1-2.5-5.1
	c-0.9-0.9-2.7-0.3-3.9-1.1c-0.1-0.5,1.1,0,0.7-0.7c-0.8,0.1-1.9-1.2-2.8-1.6c-1.9,0.5-3.2,0.5-4.5-0.3c-4.1,0.4-6.6,2.9-10.4,3.9
	c-0.5,0,0.3-0.4,0-0.8c-3.1,0.7-6,0.5-8,1.5c-0.7-0.9-1.5,0.5-2.3,0.7c-1.6-1.1-4.3-0.3-5.3-1.1c-1.2,0.9-2.8-0.4-3.5,1.1
	c-0.1-0.8-1.2-0.7-2.1-0.7c0.3,1.6-2.3-0.7-2.3,0.8c-0.4-1.2-2,0-2.1-0.7c-1.2,0.7-4.1-0.8-5.1,0.4c-0.7-0.1-2-0.8-2.1,0.3
	c-0.8,0-0.5-0.8-1.3-0.7c-1.3,0.5-2.4,0.7-4.1,0.4c-0.4,0.1,0,0.1,0,0.4c-0.9-0.4-1.1,0.3-2,0.3c-0.4,0-0.1-0.7-0.4-0.8
	c-1.2,0.4-1.6,0.1-2.5,0.7c-1.9-1.1-3.9,0.5-5.5-0.3c-0.7,0-0.8,0.4-1.2,0.7c-0.3-0.1-0.1-0.3,0-0.3c-1.9-0.9-4.3,0-6.4,0
	c-1.3-0.1-2.5-0.7-3.9-0.7c-1.6,0.1-3.9,0.9-5.5,1.1c-1.1,0.1-2.4-0.3-3.9-0.4c-1.3-0.1-2.5,0.8-3.7,0.8c-0.5,0-1.9-0.3-2.9-0.3
	c-1.2,0-2.1,0-2.5-0.7c-1.1,1.7-3.7-0.8-4.4,0.8c-1.1,0.3-1.2-0.4-1.9-0.4c0,0.4-0.3,0.4-0.3,0.7c-0.1-0.4-0.8-0.4-1.6-0.4
	c0.3,0.8-0.5,0.5-0.4,1.2c-0.3-0.1-0.4-0.4-0.7-0.4c0.3-0.4,0.1-0.8,0.9-0.7c-0.1-0.3-0.5-0.3-0.4-0.7c-2.3,2.1-4.9,0.7-6.3,0.3
	c-3.2,0.4-5.6,0.9-9.6,0c0,0.4-0.3,0.4-0.3,0.7c-2.5,0-6.1-0.3-9.4,0.4c-0.8,0.1-1.6,0.1-2.4,0.3c-0.1-0.1-0.1-0.4-0.4-0.5
	c-0.5,0.3-2-0.1-1.9,0.8c-2.7-0.1-8-0.8-10.8,0c-0.1,0-0.3,0-0.4,0c-6-0.7-12-0.7-17.2,0.3c-0.9-1.1-2.4-0.3-3.7-0.8
	c0,0.3,0,0.4,0,0.7c-2.5-0.1-5.1-0.1-6.7-0.7c-0.1,0.1-0.1,0.1-0.3,0.3c-0.1-0.1-0.3-0.1-0.5-0.1c-0.4,0.3-0.9,0.5-1.3,0.7
	c-1.3,0-1.7-0.4-2.3-0.8c2,0.5,4.3,0.1,4.5-1.6c-1.3-0.1-2.8-0.3-2.7-1.1c-0.8,0-1.5,0-2.3,0c-0.4,0.7,0.8,0.7,0.9,1.1
	c-1.1-0.3-1.5-0.7-1.9-1.1c-4.9,0.1-6.2,0.5-10.4-0.7c-5.5,2-14.7,0.4-19.5,1.6c-0.4-0.4-1.2-0.5-2.7-0.4c-0.8,1.1-2.9,1.7,0,2.4
	c3.6-0.7,8.8-1.5,12.7-1.9c1.2,0.1,0.4,0.3,0.4,0.8c0.8,0,2.3,0.3,1.9-0.4c0.8,0.1,0.4,0.7,1.9,0.4c-0.1,0.3-0.4,0.4-0.4,0.7
	c0.6,0.1,0.9,0.1,1.1,0c-1.8,1-3.1,1.6-6.5,1.9c0,0.1,0,0.1,0,0.1c-0.5,0-0.9,0-1.5,0c-0.5,0.1-1.2,0.3-2,0.4
	c0.1-0.1,0.1-0.1,0.3-0.1c-1.9-0.7-4.1,0.3-5.9-1.1c-0.8,0.3-2.4,0.7-1.3,1.2c-3.6-0.7-8.8-0.7-10.4-1.1c-1.7,0.7-4.4,0.9-5.5,2
	c-1.3,0.1-0.5-0.7-2.3-0.4c0-0.7,2-0.7-0.4-0.7c0.3-0.1,0.8-0.3,1.3-0.4c-1.7-0.5-2.1,1.1-3.2,1.5c-1.6,0.1-2.5-0.5-3.6,0
	c0.5-0.3,0.5-0.5,0-0.8c1.2-0.3,2,0.5,1.9-0.3c-0.8,0-1.5,0-2.3,0c1.6-0.7,3.3-1.9,6.8-1.6c0.4-0.4,1.3-0.5,0.9-1.2
	c2.4,0,10,0,11.8-1.5c-2.3,0.4-2.4-0.4-4.5,0.3c-0.9,0,0.7-0.5-0.4-0.8c-0.8,0.7-1.6,0-2.7,0c-5.1,0.1-9.6,0.8-14,1.9
	c0.7,0.9-1.7,0.4-1.3,1.2c-0.1-0.1-1.5-1.7-0.4-2c-2.1,0.3-5.1-0.4-8.2,0.3c-0.7-1.2-4.9-0.4-7.2-0.4c0-0.3,0.5-0.3,0.9-0.3
	c-6.4-0.7-19.5,1.2-29-0.4c-0.5-0.9,1.1-0.9,1.9-1.2c-1.7-1.7-5.2-0.9-8.2-1.6c-4.5,0.9-9.4-1.1-15.4-0.8c-0.1-0.5,1.7-0.1,1.3-0.8
	c-1.1-0.4-2.3,0.3-4.1,0c-0.9,1.2-1.3,2-0.9,3.1c-4.4,1.3-7.6,3.2-4.5,5.5c-0.3,2.5-10.8,2-14,2c0.3-0.1,0.4-0.4,0.9-0.4
	c-0.9-0.7-4-0.3-3.6-1.5c-2.4-0.3-2,0.7-3.6,0.7c0.3,0.7,1.6,1.1,0,1.5c2,0.3,4.1,0.3,6.4,0c-1.6,0.8,1.9,1.1,3.6,1.5
	c-0.1,1.2-0.1,1.6,1.3,2c-0.4,0.4-1.1,0.9-2,1.2c0.2,0.1,0.4,0.2,0.5,0.3h-0.1c-0.1-0.1-0.3-0.2-0.4-0.3c-0.2,0.1-0.3,0.1-0.5,0.2
	c-0.1-0.3-0.1-0.4,0.1-0.8c-0.3-0.5-1.9-0.1-1.6-1.1c-0.7,0.4-1.3,0.1-1.3,0.7c-1.7,0.3-3.1-0.3-4.8-0.3c-2.4,0-4.5,0.8-6.7,1.3
	c-0.8-0.1-1.5-0.4-2.1-0.9c-2.7,0.4-6.8-0.3-8.6,0.7c-1.1-0.1-2.4-0.3-3.6-0.3c-0.3-0.1-0.4-0.3-0.5-0.4c-3.1,0.5-6.2,0-8.7,0.1
	c-0.1-0.4-0.3-0.7,0-1.1c-1.9-0.4-3.9,0.7-4.4-0.4c-0.7,0.4-2,0.5-1.9-0.7c-1.3,0.1-1.3,0.3-2.1,0.4c-0.5-0.9-1.5-0.1-2.1-0.8
	c-0.4,1.3-1.9,1.7-3.5,1.7c0,0,0,0-0.1,0c-2.4,0.1-5.1-0.4-6.3,0.9c-7,0-13.6-0.3-21.3,0.5c-0.9-0.1,0.7-0.4-0.4-0.7
	c-3.1,0-5.7-0.4-8.2,0.7c0.4-0.4-2.9-0.7-3.2,0c-1.6-1.1-4.5-0.1-7.2-0.7c0,0.3,0,0.5,0,0.8c-4.1-0.9-9.4-0.9-14-1.2
	c-0.1,0.4,0.5,0.4,0.4,0.8c-3.3-0.7-13.6-0.8-14.6,0.3c-1.2,0-1.2-0.5-1.9-0.8c-1.9-0.3-1.2,0.5-1.9,0.8c-0.5-0.1-0.3-0.3,0-0.3
	c-2.4-0.3-5.1-0.4-7.8-0.4c0-0.3-0.1-0.7,0-0.8c-3.2,0.4-6-0.1-9.2-0.1c-0.9,0.3-2.5,0.7-3.7,0.7c-0.1,0-0.4-0.4-0.4-0.4
	c-1.6,0.3-2.3,1.2-4.4,1.6c-2.4,0.4-5.1,0.4-7.4,1.6c-0.7-0.1-1.3-0.3-1.2-1.2c-2.8-0.3-6-0.1-9-0.3c1.1-1.6-2.4-1.6-3.7-2.7
	c-0.1,0-0.1,0-0.3,0c0,0,0-0.1,0-0.1c-1,0-1.9,0.2-2.6-0.3c0.7,0,1.5,0.1,2.6,0.2c0-0.4,1.2-0.2,1.9-0.2c0-0.5,0.8-0.4,0-0.8
	c1.5-0.1,2.1,0.1,1.9,0.8c3.3,0,5.8,0.3,8.7,0.3c0-0.4,0-0.7,0-1.1c-5.3-0.5-11.9-0.3-14-1.5c-0.9-0.1-0.7,0.4-1.3,0.4
	c-2.4-0.8-4.7-0.8-6.8-1.9c-1.6,0.4-4.9,0-5.5,0.8c-1.6,0.1-0.5-0.9-2.3-0.7c-0.3,0.4,0.3,0.5,0.4,0.8c-3.3-0.1-6.4,0.9-12.3,0.7
	c-2-1.1-8.7-1.2-11.4-0.7c-1.3,0-1.9-0.4-2.3-0.8c-4.5,0.4-6.4-0.9-4.9-2.4c-4.4-0.3-7.5,1.3-11.4,0.7c0-0.4,0-0.8,0-1.2
	c-1.9,0.4-3.1-0.1-5.5,0c-0.4,0.3-0.7,0.7-1.3,0.8c-4.4-0.7-15.6-0.5-24.1-0.7c-6-0.1-11,0.9-14,2c0.3,1.1-0.1,1.5,0.9,2
	c-1.7,0.1-4-0.1-5.5,0.7c-0.5-0.1-0.3-0.4-0.4-0.7c-5.9,1.1-6.8-2.1-12.3-1.6C77,8,72.1,9.2,71.8,8C61.5,9.5,48,7.2,36.9,8.8
	c-0.8,1.6-3.1,2.5-5.9,3.2c-0.9-0.1,0.5-0.4-0.4-0.7c-3.6-0.5-6.7,0.3-9.1-0.8c-3.9,0-12.2,2-14.6,0.3c-2,0.1-4,0-6.2-0.1v2.8
	c0.4,0.1,0.8,0.3,1.2,0.4c1.7,0,3.2-0.7,2.3-1.1c1.3,0,2.3,0.3,2.7,0.8c1.7-0.4,1.6-0.3,1.9,0.3c1.1,0,3.1-1.5,3.2,0
	c0.9-0.4,3.3-0.3,4.1-0.8c1.5,0,0.5,1.3,1.9,0.7c-0.1,1.5-4.3,0.9-4.1,1.9c-1.9,0.3-5.6-0.5-3.6-0.7c-1.3-0.8-5.6,1.2-5.9-0.3
	c-1.7,0.1-4.3,0.9-2.3,1.5c-0.4,0.1-0.8,0.3-1.2,0.3v5.7c1.5,0.1,3.2,0.1,4.8,0.3c-0.2,0.2-0.3,0.3-0.2,0.4H0V100h1920V12.6
	c-0.6-0.1-1.1-0.2-1.6-0.4c-2.4,0-6.8,0.8-10.2,0.9C1908.2,12.6,1908.1,12.2,1907.5,12.1z M38,13.9c-0.7,0,0.8,0.9-1.3,0.8
	c-0.1-0.5-3.1-0.5-4.1-1.2c1.3-0.4,2.8-0.1,3.6-0.4c0.3,0.5-0.9,0.4-0.9,0.8c0.5,0,0.5,0.3,0.9,0.3C36.6,14.2,37.7,13.5,38,13.9z
	 M80.6,22.6l-0.1,0.1h-3.1c0.4-0.1,0.7-0.3,0.9-0.5C78.2,23.1,80.1,22.2,80.6,22.6z M114.2,9.2c-0.3,1.5-5.6,2-7.2,0.7
	c0.7,0,0.4-0.5,0.4-0.8C109.8,8.7,112.7,8.2,114.2,9.2z M163.1,15.3c-0.1,1.1-1.1,1.6,0.4,2c-1.7,0.3-1.3-0.4-2.7-0.4
	c-1.5,1.2-7.8,1.5-10.4,0.8C149.4,15.3,159.1,13.4,163.1,15.3z M172.6,15.8c0,0.3-0.1,0.5-0.1,0.8c-1.3,0.8-2.9,1.3-5.7,1.3
	c0.3-1.1-0.4-0.5-1.3-0.8c0.9-1.1-0.9-1.3-1.9-2c2,0.1,2.5-0.4,4.5-0.3c0.3,0.3,0.5,0.5,0.9,0.7c0.1-0.3,0.5-0.4,1.3-0.4
	c-0.1,0.9,1.1,0.1,1.9,0.3C172.2,15.7,172.4,15.8,172.6,15.8z M236,14.9c-0.4,0-0.8,0-1.2,0v-0.1C235.3,15,235.7,14.6,236,14.9z
	 M436.7,9.6c-1.5-0.1-2.3,0.3-1.3,0.7c-3.7,0-6.7,0.8-9.5,0.7c0.5,0.3,0.4,0.7,0.4,1.2c-2.1-0.1-0.7,0.8-1.3,0.8
	c-0.3-0.3-0.5,0.1-0.9,0.3c-0.8-0.7-1.5-0.1-2.7,0c-0.9-0.5-1.2-1.2-2.7-1.5c1.2,0,1.5,0.3,1.9-0.3c-1.1,0-0.9-0.4-2.3-0.3
	c-2,1.3-4.9-0.4-6.4,1.1c0.3,0.3,0.5,0.5,0.4,1.1c-5.1-0.3-12.2,0.1-16.8,0.8c1.3-0.5-0.9-0.5-0.9-0.7c0.5,0,0.3-0.3,0-0.4
	c3.9-0.7,5.3-3.2,10-2.7c-0.3-0.7,7-0.5,8.2,0.3c0.4-0.5,2-1.5,2.7-1.1c-0.4,0-0.5,0.4,0,0.4c1.7,0,2.4-0.4,3.2-0.8
	c-0.9-0.3-2.1,0.1-2.3-0.8c2.5-0.5,4.3-0.1,6.8-0.7c0.1,1.2-0.8,0.3-1.3,1.5c3.1-0.4,5.6,0.4,8.2-1.1c1.1,0,0.9,0.4,2.3,0.3
	c0,0.3-0.3,0.8,0.4,0.8c0.8-0.1,0-1.1,0.9-1.1c0.7,0.5,2.4,0.8,2.3,1.2C436.2,9.4,436.7,9.4,436.7,9.6z M453.4,11.4
	c1.5,0.1,1.9-0.1,2.3,0.3c-0.3,0-0.5,0.1-0.4,0.4c0.3,0,0.5,0.3,0,0.3c-0.1-0.4-1.2-0.3-1.9-0.3C453.4,11.8,453.4,11.6,453.4,11.4z
	 M453.4,8.8c1.1,0,2-0.4,2.3,0.3c-0.9,0-0.8,0.5-1.9,0.5C454,9.2,453.4,9.2,453.4,8.8z M450.4,12.3c1.2,0.1,0.4-0.8,1.3-0.8
	c-0.4,0.7,1.9,0.3,1.5,0.9c-0.4,0.4-0.7,0.7-1.9,0.7C451.8,12.4,450.5,12.6,450.4,12.3z M446.8,7.6c0.5,0,0.7,0.3,0.9,0.4
	c-1.9,0-2.7,0-1.9,0.7c-2.1,0.3-1.1-0.8-1.9-1.1c1.1,0,2.1-0.1,2.7-0.4c0.1-0.1,0.1-0.1,0.5-0.3C447.3,7.4,447,7.5,446.8,7.6z
	 M455,7.8c0.5,0,1.1,0,0.9,0.4c-2.5,0-3.9,0.4-6.4,0.8c-0.8-0.4-1.7-0.8-1.9-1.6c1.3-0.4,3.2-1.2,4.5-0.4c-1.2-0.7,3.5-1.3,4.9-0.8
	c-0.9,0.1,0.1,0.9,1.3,0.7C459.1,8.3,455.7,7.6,455,7.8z M505.5,6.7c-0.2,0.1-0.4,0.2-0.6,0.3C505.1,6.9,505.2,6.7,505.5,6.7z
	 M519.2,7c-0.5,0-0.9,0.4-1.3,0c1.6-0.3-0.4-0.4-0.4-0.7c0.7,0,0.8-0.3,1.3-0.4C518.7,6.3,519,6.7,519.2,7z M640.9,17.1
	c-0.9-0.1,0.3,0.4-0.4,0.4c-0.1-0.4-0.4,0.7-0.9,0.7c0.3,0.1,0.3,0.4,0.3,0.7c0.5-0.5,0.4,0.3,0.8,0.4c-0.3,0.1-0.4,0.1-0.7,0.3
	c-0.7-0.1-1.3-0.1-1.6,0.1v-0.9c0.3,0.1,0.5,0.1,0.9-0.4c0-0.4-0.4-0.5-0.4-1.1C639.7,17.3,640.4,16.9,640.9,17.1z M641.1,18.2
	c0.4,0.3,1.3,0.3,2,0.4c-0.5,0-0.9,0.1-1.5,0.1c-0.1,0.1-0.3,0.3-0.5,0.4C641.1,18.6,640.7,18.5,641.1,18.2z M643.3,17.3
	c-0.4,0.1-1.3-0.1-1.3,0.3c0.1,0,0.3,0.3,0,0.3c0-0.4-0.8-0.3-0.7-0.7C642.4,17.1,642.8,16.7,643.3,17.3z M766.2,9.1
	c-0.3,1.5-5.6,2-7.2,0.7c0.7,0,0.4-0.5,0.4-0.8C761.8,8.6,764.7,8,766.2,9.1z M810.6,14.3c-0.9,0.1-2.1,0.4-3.2,0.7
	c-0.3-0.1-0.4-0.1-0.7-0.3C808.1,14.5,809.4,14.3,810.6,14.3z M846.3,13.1c0.8,0,1.7,0,3.1,0.3C848.2,13.4,847.1,13.6,846.3,13.1z
	 M928.2,19.9c-0.4,0-1.9,0.5-1.9-0.3C926.7,19.3,927.8,19.7,928.2,19.9z M949.1,21.7c-0.8-0.1-1.2,0.3-0.7,0.7
	c-0.9-0.1-0.5,0.3-0.7,0.5h-0.7c-0.1-0.1-0.3-0.1-0.4-0.1c0.4-1.2-0.9-0.8-0.7-2C947.5,21,948.9,20.3,949.1,21.7z M975.5,19.5
	c-2.3,0.5-5.3,1.6-6.3-0.4C971.2,18.1,974.7,18.2,975.5,19.5z M1027.6,16.1c-0.1,0-0.1,0-0.1,0.1c0-0.1-0.3-0.3-0.5-0.5
	C1027.2,15.8,1027.5,15.9,1027.6,16.1z M1045.6,18.1c-1.6,1.9-5.8,3.1-11.6,2.7c-1.7-0.8-0.4-2.1-0.3-3.3
	C1037.3,16.9,1042.5,17.5,1045.6,18.1z M1088.8,9.5c-1.5-0.1-2.3,0.3-1.3,0.7c-3.8,0-6.7,0.8-9.5,0.7c0.5,0.3,0.4,0.7,0.4,1.2
	c-2.1-0.1-0.7,0.8-1.3,0.8c-0.3-0.3-0.5,0.1-0.9,0.3c-0.8-0.7-1.5-0.1-2.7,0c-0.9-0.5-1.2-1.2-2.7-1.5c1.2,0,1.5,0.3,1.9-0.3
	c-1.1,0-0.9-0.4-2.3-0.3c-2,1.3-5-0.4-6.4,1.1c0.4,0.1,0.5,0.4,0.5,0.8c-0.5,0-1.1,0.1-1.6,0.1c-3.2,0-7.1,0.1-10.4,0.4
	c-0.3-0.1-0.5-0.3-0.8-0.4c-1.6,0-3.2,0-4.9-0.1c3.8-0.7,5.2-3.1,9.9-2.7c-0.3-0.7,6.9-0.5,8.2,0.3c0.4-0.5,2-1.5,2.7-1.1
	c-0.4,0-0.5,0.4,0,0.4c1.7,0,2.4-0.4,3.2-0.8c-0.9-0.3-2.1,0.1-2.3-0.8c2.5-0.5,4.3-0.1,6.8-0.7c0.1,1.2-0.8,0.3-1.3,1.5
	c3.1-0.4,5.6,0.4,8.2-1.1c1.1,0,0.9,0.4,2.3,0.3c0,0.3-0.3,0.8,0.4,0.8c0.8-0.1,0-1.1,0.9-1.1c0.7,0.5,2.4,0.8,2.3,1.2
	C1088.2,9.2,1088.8,9.2,1088.8,9.5z M1105.6,8.7c1.1,0,2-0.4,2.3,0.3c-0.9,0.1-0.9,0.5-1.9,0.5C1106.1,9.1,1105.6,9.1,1105.6,8.7z
	 M1098.9,7.6c0.5,0,0.7,0.3,0.9,0.4c-1.9,0-2.7,0-1.9,0.7c-2.1,0.3-1.1-0.8-1.9-1.1c1.1,0,2.1-0.1,2.7-0.4c0-0.1,0-0.3,0.5-0.3
	C1099.4,7.4,1099.2,7.5,1098.9,7.6z M1107.1,7.8c0.5,0,1.1,0,0.9,0.4c-2.5,0-3.9,0.4-6.4,0.8c-0.8-0.4-1.7-0.8-1.9-1.6
	c1.3-0.4,3.2-1.2,4.6-0.4c-1.2-0.7,3.5-1.3,4.9-0.8c-0.9,0.1,0.1,0.9,1.3,0.7C1111.1,8.2,1107.7,7.5,1107.1,7.8z M1156.6,6.4
	c-0.2,0.1-0.4,0.2-0.6,0.3C1156.1,6.6,1156.3,6.5,1156.6,6.4z M1171.3,6.8c-0.5,0-0.9,0.4-1.3,0c1.6-0.3-0.4-0.4-0.4-0.7
	c0.7,0,0.8-0.3,1.3-0.4C1170.7,6.3,1171,6.6,1171.3,6.8z M1188.4,9.5c-0.3,0-0.5,0.1-0.8,0.1c-0.5-0.5-1.3-0.4-1.6-0.8
	C1187.2,8.8,1187.8,9.1,1188.4,9.5z M1250.9,12.4c-2,0.3-2.7,0.9-5.5,0.7c-0.7-0.7,0.3-0.8-0.4-1.2c1.3-0.1,0.9,0.5,2.3,0.4
	c-0.7-0.8,1.5-0.1,1.3-0.7c-0.8-0.1-0.1-0.3,0.4,0c0.8-0.4-0.4-1.5,0.4-1.1c0.9,0.7,1.5-0.4,2.3-0.4c0.1,0.4,0.7,0,1.1,0.3
	C1251.2,11,1251.6,11.4,1250.9,12.4z M1335.2,15.3c-0.7,0,0.8,0.9-1.3,0.8c-0.1-0.5-3.1-0.5-4.2-1.2c1.3-0.4,2.8-0.1,3.6-0.4
	c0.3,0.5-0.9,0.4-0.9,0.8c0.5,0,0.5,0.3,0.9,0.3C1333.9,15.5,1334.9,14.9,1335.2,15.3z M1411.4,10.7c-0.1,0.3-0.3,0.5-0.7,0.7
	c-0.1,0-0.3,0-0.4,0c0.1,0,0.1,0.1,0.1,0.1c-1.6,0.7-5.1,0.7-6.3-0.3c0.7,0,0.4-0.5,0.4-0.8C1407,10,1409.9,9.4,1411.4,10.7z
	 M1477.2,11.6c-3.3-0.1-6.4,0.9-12.3,0.7c-0.7-0.3-1.6-0.5-2.8-0.7c0.4-0.1,0.7-0.3,0.9-0.4c-0.9-0.3-2.1,0.1-2.3-0.8
	c2.5-0.5,4.3-0.1,6.8-0.7c0.1,1.2-0.8,0.3-1.3,1.5c3.1-0.4,5.6,0.4,8.2-1.1c1.1-0.1,0.9,0.4,2.3,0.1c0.1,0.3,0,0.5,0.1,0.7
	C1476.7,11.2,1477.1,11.4,1477.2,11.6z M1479.9,11.1c-0.4,0-0.7,0.1-0.8,0.4c-1.3,0-0.9-0.5-1.6-0.7c0-0.3-0.1-0.7,0.5-0.5
	C1478.4,10.7,1479.3,10.8,1479.9,11.1z M1492.2,10.2c-1.9,0-2.7,0-1.9,0.7c-2.1,0.3-1.1-0.8-1.9-1.1c1.1,0,2.1-0.1,2.7-0.4
	c0.1-0.1,0.1-0.3,0.5-0.3c0.1,0.4-0.1,0.5-0.4,0.7C1491.8,9.8,1491.9,10,1492.2,10.2z M1497.9,13.8c0.1,0,0.1,0.1,0.1,0.3h-0.1
	C1497.9,13.9,1497.9,13.9,1497.9,13.8z M1497.5,14.6c-0.4,0.3-0.7,0.7-1.9,0.5c0.4-0.7-0.8-0.5-0.9-0.8c0.4,0,0.5,0,0.7-0.1
	c0.3,0,0.5,0,0.8,0c0-0.1,0.1-0.1,0.1-0.3C1496.9,14,1497.9,14,1497.5,14.6z M1500.2,11.1c-0.9,0.1-0.8,0.5-1.9,0.5
	c0.1-0.4-0.4-0.4-0.4-0.8C1499,10.8,1499.9,10.4,1500.2,11.1z M1548.3,8.2c-0.2,0.1-0.4,0.2-0.6,0.3
	C1547.9,8.3,1548.1,8.2,1548.3,8.2z M1563.7,9c-0.5,0-0.9,0.4-1.3,0c1.6-0.3-0.4-0.4-0.4-0.7c0.7,0,0.8-0.3,1.3-0.4
	C1563.2,8.4,1563.5,8.7,1563.7,9z M1578.4,10.8c1.5,0.1,2.4,0.5,2.7,1.1c-0.3,0-0.7,0-0.9,0C1579.8,11.2,1578.6,11.5,1578.4,10.8z
	 M1645.3,12.6c-1.6,0.5-1.2,0.9-1.9,2c-2,0.3-2.7,0.9-5.5,0.7c-0.7-0.7,0.3-0.8-0.4-1.2c1.3-0.1,0.9,0.5,2.3,0.4
	c-0.7-0.8,1.5-0.1,1.3-0.7c-0.8-0.1-0.1-0.3,0.4,0c0.8-0.4-0.4-1.5,0.4-1.1c0.9,0.7,1.5-0.4,2.3-0.4
	C1644.4,12.7,1644.9,12.3,1645.3,12.6z M1645.2,15.4c-0.3-0.5-0.7,0.4-1.3,0.3c-0.1-0.5,1.2-1.3,1.3-1.1
	C1644.5,15.1,1646.2,15.4,1645.2,15.4z M1674.6,15.7c-0.5,0.5-1.3,1.1-2.5,1.3c-0.1-0.3-0.1-0.4,0.1-0.8c-0.3-0.5-1.9-0.1-1.6-1.1
	c-0.7,0.4-1.3,0.1-1.3,0.7c-1.7,0.3-3.1-0.3-4.8-0.3c-1.5,0-3,0.4-4.4,0.8c-0.4-0.1-0.5-0.4-0.5-0.8c-0.4,0-0.3,0.3-0.4,0.4
	c-0.1,0.3-0.5-0.1-1.3,0c-0.1,1.3-3.5,0.8-5.6,1.1c-0.1,0-0.1-0.1-0.3-0.1c-0.4,0-0.7,0-1.1,0c-0.1-0.4,0-0.9,0.5-0.9
	c-0.5-0.9-3.7-0.5-5.5-0.8c0.4-0.3,0.4-0.8,1.3-0.8c1.3,0.1-0.4,0.4,0,0.8c1.1-0.5,1.9-1.1,3.6-0.7c-0.1-0.8,1.3-0.8,1.3-1.5
	c0.5,0.3,2.2,0.3,2.7,0c-1.9,1.5,1.5,2.3,0.4,3.1c0.3,0,0.7,0,0.9,0s0.7,0,0.9,0c-0.4-0.7-0.3-1.2,0.9-0.7c-0.7-0.4,0.3-2.1-0.9-2.3
	c0.1-0.5,2-0.1,1.3,0.4c1.3-0.1,1.6-0.8,2.7-1.2c0.7,0.9,2.9,0,3.5-0.1c1.6,0.1,3.2,0,4.9-0.1c-1.6,0.8,1.9,1.1,3.6,1.5
	C1673,14.7,1673,15.1,1674.6,15.7z M1733.9,10.7c-1.5-0.1-2.3,0.3-1.3,0.7c-3.8,0-6.7,0.8-9.5,0.7c0.5,0.3,0.4,0.7,0.4,1.2
	c-2.1-0.1-0.7,0.8-1.3,0.8c-0.3-0.3-0.5,0.1-0.9,0.3c-0.8-0.7-1.5-0.1-2.7,0c-0.9-0.5-1.2-1.2-2.7-1.5c1.2,0,1.5,0.3,1.9-0.3
	c-1.1,0-0.9-0.4-2.3-0.3c-2,1.3-4.9-0.4-6.4,1.1c0.3,0.3,0.5,0.5,0.4,0.9c-5.5,0.1-11.2-0.3-17-0.3c3.2-0.7,4.8-2.8,9.2-2.4
	c-0.3-0.7,7-0.5,8.2,0.3c0.4-0.5,2-1.5,2.7-1.1c-0.4,0-0.5,0.4,0,0.4c1.7,0,2.4-0.4,3.2-0.8c-0.9-0.3-2.1,0.1-2.3-0.8
	c2.6-0.5,4.3-0.1,6.8-0.7c0.1,1.2-0.8,0.3-1.3,1.5c3.1-0.4,5.6,0.4,8.2-1.1c1.1,0,0.9,0.4,2.3,0.3c0,0.3-0.3,0.8,0.4,0.8
	c0.8-0.1,0-1.1,0.9-1.1c0.7,0.5,2.4,0.8,2.3,1.2C1733.3,10.7,1733.9,10.6,1733.9,10.7z M1744.9,9.4c-1.9,0-2.7,0-1.9,0.7
	c-2.1,0.3-1.1-0.8-1.9-1.1c1.1,0,2.1-0.1,2.7-0.4c0.1-0.1,0.1-0.3,0.5-0.3c0.1,0.4-0.1,0.5-0.4,0.7C1744.5,9,1744.7,9.2,1744.9,9.4z
	 M1753.1,10.3c-0.9,0.1-0.9,0.7-1.9,0.7c0-0.3-0.5-0.4-0.4-0.9C1751.9,10,1752.8,9.6,1753.1,10.3z M1800.8,7.3
	c-0.2,0.1-0.4,0.2-0.6,0.3C1800.4,7.5,1800.5,7.4,1800.8,7.3z M1816.5,8.3c-0.5,0-0.9,0.4-1.3,0c1.6-0.3-0.4-0.4-0.4-0.7
	c0.7,0,0.8-0.3,1.3-0.4C1815.9,7.6,1816.2,7.9,1816.5,8.3z M1831.2,10.2c1.5,0.1,2.4,0.5,2.7,1.1c-0.3,0-0.7,0-0.9,0
	C1832.5,10.4,1831.3,10.7,1831.2,10.2z M1872.9,15.4c0.3,1.2-4.7,1.2-3.2,0.3C1870.9,16.2,1870.6,15.8,1872.9,15.4z M1882.4,17.5
	c-0.4,0.4-0.1,0.9-0.9,1.2c-1.3-0.7-6,0-6.8-0.3c0.9-0.1,1.7-1.2-0.4-1.1c-0.1-0.7-0.1-1.2,1.3-1.1c0.1,0.4-0.5,1.1,0.4,1.1
	c2-0.1-0.3-0.9,0.9-1.1c0.3,0.4,1.3,0.4,0.9-0.3C1880.4,16.5,1879.7,17.3,1882.4,17.5z M1912.3,15.4c1.1-0.1,2.3-0.1,2.8-0.5
	c1.3,0,0.4,1.2,1.9,0.7c0,0.3-0.3,0.5-0.5,0.7C1914.6,16.2,1913,15.9,1912.3,15.4z M1910.1,15.1c0.3-0.1,0.4-0.1,0.5,0
	C1910.3,15.1,1910.2,15.1,1910.1,15.1z M1898,11.9c-1.6,0.5-1.2,0.9-1.9,2c-2,0.3-2.7,0.9-5.5,0.7c-0.7-0.7,0.3-0.8-0.4-1.2
	c1.3-0.1,0.9,0.5,2.3,0.4c-0.7-0.8,1.5-0.1,1.3-0.7c-0.8-0.1-0.1-0.3,0.4,0c0.8-0.4-0.4-1.5,0.4-1.1c0.9,0.7,1.5-0.4,2.3-0.4
	C1897.1,12,1897.6,11.5,1898,11.9z M1897.8,14.7c-0.3-0.5-0.7,0.4-1.3,0.3c-0.1-0.5,1.2-1.3,1.3-1.1
	C1897.2,14.3,1899,14.6,1897.8,14.7z M1899.8,14.2v0.3c-0.5,0-1.1,0-1.5-0.1c0.4-0.3,0.4-0.8,1.3-0.9h0.1v0.4
	c-0.1,0.1-0.3,0.3-0.1,0.4L1899.8,14.2L1899.8,14.2z M1907.3,12.2c-0.3,0.3-0.5,0.5-0.5,0.8c-0.3-0.1-0.5-0.3-0.8-0.4
	c-0.5,0-1.1,0-1.6,0c0.1-0.1,0.3-0.3,0.3-0.4C1905.3,12.6,1906.7,12.6,1907.3,12.2z M1907.8,15.8c0.4,0,0.9-0.3,1.5-0.4
	c0.1,0,0.1,0,0.3,0c0-0.1,0-0.1,0-0.1c0.3-0.1,0.4-0.1,0.5-0.1c-0.1,1.5-4.3,0.5-6.4,1.2c-0.5,0.1-0.7-0.5-0.4-0.9
	c0.1,0,0.3-0.1,0.3-0.1c0.1,0,0.1,0,0.3,0c-0.1-0.1-0.1-0.3-0.3-0.3c-0.1-0.1-0.1-0.3-0.3-0.3c1.3,0,2.4,0.3,2.7,0.8
	C1907.7,15.1,1907.5,15.3,1907.8,15.8z"/>
<path class="st1" d="M375.1,15.9C375.1,15.9,375.1,15.9,375.1,15.9c0,0-0.1-0.1-0.1-0.1C375,15.8,375,15.9,375.1,15.9z"/>
<path class="st1" d="M1887.1,9.1c0.5,0.2,1,0.3,1.5,0.3c0,0,0.1,0,0.3-0.1C1888.7,9.1,1887.7,9.2,1887.1,9.1z"/>
<path class="st1" d="M196.9,13.3C196.9,13.3,196.9,13.4,196.9,13.3c0.2,0.1,0.3,0,0.5,0C197.2,13.4,197.1,13.3,196.9,13.3z"/>
<path class="st1" d="M1824.2,15.4c0.1,0,0.1,0,0.1-0.1c0-0.2,0-0.3-0.1-0.4c-0.3,0.2-0.5,0.4-0.7,0.7c0,0,0.1,0,0.1,0
	c0-0.1,0.2-0.1,0.3-0.1c0,0,0,0,0-0.1C1824,15.4,1824.1,15.4,1824.2,15.4z"/>
<path class="st1" d="M1571.2,16.3c0.1,0,0.2,0,0.2,0.1c0.6-0.1,0.3-0.3,0.1-0.4C1571.5,16,1571.4,16.1,1571.2,16.3z"/>
<path class="st1" d="M1251.8,13.4c0.1,0,0.1,0,0.2,0c0.3-0.2,0.6-0.5,0.8-0.1c0.9,0-0.1-0.3-0.1-0.6
	C1252.1,12.8,1252.1,13.2,1251.8,13.4z"/>
<path class="st1" d="M1502.7,9c0,0-0.1,0-0.1,0c0.1,0.1,0.2,0.2,0.2,0.2C1502.7,9.1,1502.7,9.1,1502.7,9z"/>
<path class="st1" d="M1634.4,10c0.4,0.2,0.9,0.3,1.4,0.3c-0.1-0.1-0.1-0.2,0.3-0.2c-0.1-0.2-1-0.2-1.7-0.2
	C1634.4,10,1634.3,10,1634.4,10C1634.4,10,1634.4,10,1634.4,10z"/>
</svg>
